<?xml version="1.0" standalone="no"?>
<!DOCTYPE svg PUBLIC "-//W3C//DTD SVG 20010904//EN"
 "http://www.w3.org/TR/2001/REC-SVG-20010904/DTD/svg10.dtd">
<svg version="1.0" xmlns="http://www.w3.org/2000/svg"
 width="512.000000pt" height="512.000000pt" viewBox="0 0 512.000000 512.000000"
 preserveAspectRatio="xMidYMid meet">
<metadata>
Created by potrace 1.14, written by Peter Selinger 2001-2017
</metadata>
<g transform="translate(0.000000,512.000000) scale(0.100000,-0.100000)"
fill="#000000" stroke="none">
<path d="M0 2560 l0 -2560 2560 0 2560 0 0 2560 0 2560 -2560 0 -2560 0 0
-2560z m4119 1865 l41 -45 0 -300 0 -300 -36 -40 -36 -40 -552 -2 -551 -3 -3
-1485 -2 -1484 -32 -33 -32 -33 -357 0 -357 0 -36 40 -36 40 0 1477 0 1478
-547 3 -547 2 -38 37 -38 37 0 312 0 312 40 36 40 36 1519 0 1518 0 42 -45z"/>
</g>
</svg>
